# xmcd
#
# Track frame offsets:
#	150
#	15818
#	35176
#	50002
#	65096
#	82983
#	90670
#	106162
#	127075
#	134359
#	142110
#	158357
#	168979
#	182903
#	197039
#	212051
#	217238
#	228075
#	244127
#	260946
#	278024
#
# Disc length: 3936 seconds
#
# Revision: 0
# Processed by: cddbd v1.5.2PL0 Copyright (c) Steve Scherf et al.
# Submitted via: audiograbber 1.83.01
#
DISCID=370f5e15
DTITLE=Tomislav Goluban - Kaj Blues Etno
DYEAR=2016
DGENRE=World music
TTITLE0=Na zagorskom brijegu
TTITLE1=Vinska kaplja
TTITLE2=Isel budem v kleticu
TTITLE3=Crv i planjka
TTITLE4=Tebe rad imam
TTITLE5=Cug
TTITLE6=Vlakvozi
TTITLE7=Bijeg od sebe
TTITLE8=Traktor
TTITLE9=Daj gas
TTITLE10=Put u nigdje
TTITLE11=Tambura boogie
TTITLE12=Polako starim
TTITLE13=Coper
TTITLE14=Vrata
TTITLE15=Gajde blues
TTITLE16=Jebiveter
TTITLE17=Crveni tepih
TTITLE18=Odlazak u san
TTITLE19=Zivot mi je kakti nocka
TTITLE20=Tebe rad imam - instr.
EXTD=
EXTT0=
EXTT1=
EXTT2=
EXTT3=
EXTT4=
EXTT5=
EXTT6=
EXTT7=
EXTT8=
EXTT9=
EXTT10=
EXTT11=
EXTT12=
EXTT13=
EXTT14=
EXTT15=
EXTT16=
EXTT17=
EXTT18=
EXTT19=
EXTT20=
PLAYORDER=
